<svg width="24" height="24" viewBox="0 0 24 24" fill="none" xmlns="http://www.w3.org/2000/svg">
<rect width="24" height="24" transform="translate(24) rotate(90)" fill="white"/>
<path fill-rule="evenodd" clip-rule="evenodd" d="M13.2925 18.7124C13.1025 18.5124 13.0025 18.2624 13.0025 18.0024C13.0025 17.7424 13.1025 17.4924 13.2925 17.2924L17.5925 13.0024L4.0025 13.0024C3.4525 13.0024 3.0025 12.5524 3.0025 12.0024C3.0025 11.4524 3.4525 11.0024 4.0025 11.0024L17.5925 11.0024L13.2925 6.71238C12.9025 6.32238 12.9025 5.68238 13.2925 5.29238C13.6825 4.90238 14.3225 4.90238 14.7125 5.29238L20.7125 11.2924C20.8025 11.3824 20.8725 11.4924 20.9225 11.6124C20.9425 11.6624 20.9625 11.7024 20.9625 11.7524C21.0125 11.9124 21.0125 12.0924 20.9625 12.2524C20.9625 12.3024 20.9425 12.3424 20.9225 12.3924C20.8725 12.5124 20.8025 12.6224 20.7125 12.7124L14.7125 18.7124C14.3225 19.1024 13.6825 19.1024 13.2925 18.7124Z" fill="#313037"/>
</svg>
