<svg width="24" height="24" viewBox="0 0 24 24" fill="none" xmlns="http://www.w3.org/2000/svg">
<rect width="24" height="24" transform="matrix(4.37114e-08 1 1 -4.37114e-08 0 0)" fill="white"/>
<path fill-rule="evenodd" clip-rule="evenodd" d="M10.7075 18.7124C10.8975 18.5124 10.9975 18.2624 10.9975 18.0024C10.9975 17.7424 10.8975 17.4924 10.7075 17.2924L6.4075 13.0024L19.9975 13.0024C20.5475 13.0024 20.9975 12.5524 20.9975 12.0024C20.9975 11.4524 20.5475 11.0024 19.9975 11.0024L6.4075 11.0024L10.7075 6.71238C11.0975 6.32238 11.0975 5.68238 10.7075 5.29238C10.3175 4.90238 9.6775 4.90238 9.2875 5.29238L3.2875 11.2924C3.1975 11.3824 3.1275 11.4924 3.0775 11.6124C3.0575 11.6624 3.0375 11.7024 3.0375 11.7524C2.9875 11.9124 2.9875 12.0924 3.0375 12.2524C3.0375 12.3024 3.0575 12.3424 3.0775 12.3924C3.1275 12.5124 3.1975 12.6224 3.2875 12.7124L9.2875 18.7124C9.6775 19.1024 10.3175 19.1024 10.7075 18.7124Z" fill="#313037"/>
</svg>
